<svg width="274" height="10" viewBox="0 0 274 10" fill="none" xmlns="http://www.w3.org/2000/svg">
<g opacity="0.6">
<path d="M5 1L5.21642 1.86891C5.57406 3.3048 6.6952 4.42594 8.13109 4.78358L9 5L8.13109 5.21642C6.6952 5.57406 5.57406 6.6952 5.21642 8.13109L5 9L4.78358 8.13109C4.42594 6.6952 3.3048 5.57406 1.86891 5.21642L1 5L1.86891 4.78358C3.3048 4.42594 4.42594 3.3048 4.78358 1.86891L5 1Z" stroke="#160829" stroke-linejoin="round"/>
<rect x="7" y="4.5" width="130" height="1" fill="#160829"/>
</g>
<g opacity="0.6">
<path d="M269 1L268.784 1.86891C268.426 3.3048 267.305 4.42594 265.869 4.78358L265 5L265.869 5.21642C267.305 5.57406 268.426 6.6952 268.784 8.13109L269 9L269.216 8.13109C269.574 6.6952 270.695 5.57406 272.131 5.21642L273 5L272.131 4.78358C270.695 4.42594 269.574 3.3048 269.216 1.86891L269 1Z" stroke="#160829" stroke-linejoin="round"/>
<rect width="130" height="1" transform="matrix(-1 0 0 1 267 4.5)" fill="#160829"/>
</g>
</svg>
