<svg width="108" height="36" viewBox="0 0 108 36" fill="none" xmlns="http://www.w3.org/2000/svg">
<path d="M23.7863 11.4224H16.4648V24.5791H23.7863V11.4224Z" fill="#FF5F00"/>
<path d="M16.9282 17.9999C16.9271 16.7328 17.2142 15.4821 17.7679 14.3423C18.3215 13.2026 19.1273 12.2038 20.124 11.4215C18.8897 10.4513 17.4073 9.84791 15.8462 9.68036C14.2851 9.51281 12.7084 9.78783 11.2963 10.474C9.88418 11.1602 8.69358 12.2298 7.86062 13.5607C7.02766 14.8915 6.58594 16.4299 6.58594 17.9999C6.58594 19.5699 7.02766 21.1083 7.86062 22.4391C8.69358 23.77 9.88418 24.8396 11.2963 25.5258C12.7084 26.212 14.2851 26.487 15.8462 26.3194C17.4073 26.1519 18.8897 25.5485 20.124 24.5783C19.1273 23.796 18.3216 22.7972 17.7679 21.6575C17.2142 20.5177 16.9271 19.267 16.9282 17.9999Z" fill="#EB001B"/>
<path d="M33.6627 18.0001C33.6627 19.5701 33.2211 21.1085 32.3882 22.4393C31.5552 23.7702 30.3647 24.8398 28.9526 25.526C27.5405 26.2122 25.9638 26.4872 24.4028 26.3197C22.8417 26.1521 21.3593 25.5488 20.125 24.5785C21.1209 23.7954 21.926 22.7965 22.4796 21.6569C23.0332 20.5174 23.3208 19.267 23.3208 18.0001C23.3208 16.7332 23.0332 15.4829 22.4796 14.3433C21.926 13.2038 21.1209 12.2048 20.125 11.4217C21.3593 10.4515 22.8417 9.84815 24.4028 9.6806C25.9638 9.51305 27.5405 9.78809 28.9526 10.4743C30.3647 11.1605 31.5552 12.2301 32.3882 13.561C33.2211 14.8918 33.6627 16.4301 33.6627 18.0001Z" fill="#F79E1B"/>
<path d="M48.2871 20.9847V17.47C48.2871 16.1255 47.4681 15.2451 46.0622 15.2451C45.3593 15.2451 44.5949 15.4771 44.0694 16.2415C43.6599 15.6 43.073 15.2451 42.1926 15.2451C41.6056 15.2451 41.0187 15.4225 40.5546 16.0641V15.3611H39.3262V20.9847H40.5546V17.8794C40.5546 16.883 41.0801 16.4121 41.8991 16.4121C42.7181 16.4121 43.1276 16.9376 43.1276 17.8794V20.9847H44.356V17.8794C44.356 16.883 44.943 16.4121 45.7005 16.4121C46.5195 16.4121 46.929 16.9376 46.929 17.8794V20.9847H48.2871ZM66.5092 15.3611H64.5164V13.6617H63.288V15.3611H62.1755V16.4735H63.288V19.0533C63.288 20.3432 63.8135 21.1007 65.2194 21.1007C65.7449 21.1007 66.3318 20.9233 66.7413 20.6913L66.3864 19.6334C66.0315 19.8655 65.622 19.9269 65.3286 19.9269C64.7416 19.9269 64.5096 19.572 64.5096 18.9919V16.4735H66.5024V15.3611H66.5092ZM76.9375 15.2383C76.2346 15.2383 75.7636 15.5931 75.4702 16.0572V15.3543H74.2417V20.9779H75.4702V17.8112C75.4702 16.8762 75.8797 16.3439 76.644 16.3439C76.8761 16.3439 77.1695 16.4053 77.4084 16.4599L77.7633 15.286C77.5176 15.2383 77.1695 15.2383 76.9375 15.2383ZM61.1791 15.8252C60.5922 15.4157 59.7732 15.2383 58.8928 15.2383C57.4869 15.2383 56.5519 15.9412 56.5519 17.0537C56.5519 17.9886 57.2549 18.521 58.4833 18.6916L59.0702 18.753C59.7118 18.869 60.0667 19.0465 60.0667 19.34C60.0667 19.7494 59.5958 20.0429 58.7768 20.0429C57.9578 20.0429 57.3095 19.7494 56.9 19.456L56.313 20.391C56.9546 20.8619 57.835 21.0939 58.7154 21.0939C60.3533 21.0939 61.2951 20.3295 61.2951 19.2785C61.2951 18.2821 60.5307 17.7566 59.3637 17.5792L58.7768 17.5177C58.2513 17.4563 57.8418 17.3403 57.8418 16.9922C57.8418 16.5827 58.2513 16.3507 58.8996 16.3507C59.6026 16.3507 60.3055 16.6442 60.6604 16.8216L61.1791 15.8252ZM93.8629 15.2383C93.16 15.2383 92.6891 15.5931 92.3956 16.0572V15.3543H91.1672V20.9779H92.3956V17.8112C92.3956 16.8762 92.8051 16.3439 93.5695 16.3439C93.8015 16.3439 94.095 16.4053 94.3339 16.4599L94.6887 15.2997C94.4499 15.2383 94.1018 15.2383 93.8629 15.2383ZM78.166 18.1729C78.166 19.8723 79.3398 21.1007 81.1552 21.1007C81.9742 21.1007 82.5611 20.9233 83.148 20.4592L82.5611 19.4628C82.0902 19.8177 81.6261 19.9883 81.0938 19.9883C80.0974 19.9883 79.3944 19.2854 79.3944 18.1729C79.3944 17.1151 80.0974 16.4121 81.0938 16.3575C81.6193 16.3575 82.0902 16.535 82.5611 16.883L83.148 15.8866C82.5611 15.4157 81.9742 15.2451 81.1552 15.2451C79.3398 15.2383 78.166 16.4735 78.166 18.1729ZM89.5292 18.1729V15.3611H88.3008V16.0641C87.8913 15.5386 87.3043 15.2451 86.54 15.2451C84.9566 15.2451 83.7282 16.4735 83.7282 18.1729C83.7282 19.8723 84.9566 21.1007 86.54 21.1007C87.3589 21.1007 87.9459 20.8073 88.3008 20.2818V20.9847H89.5292V18.1729ZM85.018 18.1729C85.018 17.1765 85.6596 16.3575 86.7174 16.3575C87.7138 16.3575 88.4168 17.1219 88.4168 18.1729C88.4168 19.1693 87.7138 19.9883 86.7174 19.9883C85.6664 19.9269 85.018 19.1625 85.018 18.1729ZM70.3175 15.2383C68.6795 15.2383 67.5057 16.4121 67.5057 18.1661C67.5057 19.9269 68.6795 21.0939 70.3789 21.0939C71.1979 21.0939 72.0168 20.8619 72.6652 20.3295L72.0783 19.4491C71.6074 19.804 71.0204 20.0361 70.4403 20.0361C69.6759 20.0361 68.9184 19.6812 68.7409 18.6916H72.8972C72.8972 18.5142 72.8972 18.3981 72.8972 18.2207C72.9518 16.4121 71.894 15.2383 70.3175 15.2383ZM70.3175 16.2961C71.0818 16.2961 71.6074 16.767 71.7234 17.6406H68.7955C68.9116 16.883 69.4371 16.2961 70.3175 16.2961ZM100.838 18.1729V13.1362H99.6094V16.0641C99.1999 15.5386 98.613 15.2451 97.8486 15.2451C96.2653 15.2451 95.0368 16.4735 95.0368 18.1729C95.0368 19.8723 96.2653 21.1007 97.8486 21.1007C98.6676 21.1007 99.2545 20.8073 99.6094 20.2818V20.9847H100.838V18.1729ZM96.3267 18.1729C96.3267 17.1765 96.9682 16.3575 98.0261 16.3575C99.0225 16.3575 99.7254 17.1219 99.7254 18.1729C99.7254 19.1693 99.0225 19.9883 98.0261 19.9883C96.9682 19.9269 96.3267 19.1625 96.3267 18.1729ZM55.2006 18.1729V15.3611H53.9721V16.0641C53.5627 15.5386 52.9757 15.2451 52.2113 15.2451C50.628 15.2451 49.3995 16.4735 49.3995 18.1729C49.3995 19.8723 50.628 21.1007 52.2113 21.1007C53.0303 21.1007 53.6172 20.8073 53.9721 20.2818V20.9847H55.2006V18.1729ZM50.6348 18.1729C50.6348 17.1765 51.2764 16.3575 52.3342 16.3575C53.3306 16.3575 54.0336 17.1219 54.0336 18.1729C54.0336 19.1693 53.3306 19.9883 52.3342 19.9883C51.2764 19.9269 50.6348 19.1625 50.6348 18.1729Z" fill="white"/>
</svg>
