<svg width="108" height="36" viewBox="0 0 108 36" fill="none" xmlns="http://www.w3.org/2000/svg">
<path d="M80.1653 25.4296C78.8587 25.4296 77.552 25.4296 76.2258 25.4296C76.0816 24.7532 75.927 24.0916 75.8049 23.4243C75.7543 23.1474 75.6636 23.0399 75.3471 23.0439C73.7674 23.0637 72.1873 23.0589 70.6076 23.0466C70.3684 23.0448 70.2733 23.1219 70.2006 23.3346C69.9829 23.9706 69.7449 24.6 69.5014 25.2269C69.4684 25.3121 69.3588 25.4288 69.2838 25.4294C67.8599 25.4415 66.4357 25.4384 64.9707 25.4384C65.2377 24.8105 65.4906 24.211 65.7472 23.6132C67.5832 19.336 69.4199 15.0589 71.2565 10.7819C71.6543 9.85554 72.2506 9.46763 73.2765 9.46757C74.4196 9.46749 75.5628 9.46755 76.7352 9.46755C76.8495 9.98901 76.9645 10.5029 77.0746 11.0177C77.9782 15.2446 78.8795 19.4719 79.7851 23.6984C79.9012 24.2398 80.038 24.7769 80.1653 25.3159C80.1653 25.3539 80.1653 25.3917 80.1653 25.4296ZM75.0092 19.7574C74.5894 17.792 74.1752 15.8529 73.7609 13.9138C73.7441 13.9106 73.7272 13.9073 73.7102 13.9041C72.9885 15.8481 72.2668 17.792 71.537 19.7574C72.7156 19.7574 73.8442 19.7574 75.0092 19.7574Z" fill="white"/>
<path d="M63.0029 9.18335C63.5227 9.2776 64.0466 9.35511 64.5615 9.47105C65.0311 9.57685 65.4911 9.72431 65.9903 9.86316C65.7387 11.0121 65.4931 12.1336 65.2528 13.2308C64.5941 13.0422 63.9646 12.825 63.3174 12.6856C62.4323 12.4948 61.5255 12.4221 60.64 12.663C60.2799 12.761 59.9157 12.949 59.6323 13.1861C59.1462 13.5927 59.1396 14.1781 59.604 14.605C59.9241 14.8995 60.3035 15.1411 60.6827 15.3637C61.5446 15.8698 62.4496 16.31 63.2873 16.8506C64.2739 17.4873 64.9935 18.3626 65.1445 19.5462C65.4118 21.6396 64.619 23.2885 62.8181 24.455C61.6856 25.1885 60.4041 25.5162 59.0689 25.6375C57.2044 25.8068 55.3767 25.6029 53.5953 25.0316C53.4758 24.9932 53.3596 24.9453 53.2432 24.8988C53.2084 24.885 53.1782 24.8604 53.125 24.828C53.3766 23.6773 53.6286 22.5248 53.8877 21.3401C54.1914 21.4696 54.4765 21.5993 54.7678 21.7139C56.1596 22.2616 57.5969 22.512 59.0866 22.2395C59.4742 22.1686 59.8694 22.0015 60.1979 21.7865C60.9108 21.3198 60.9791 20.443 60.3301 19.8949C59.9034 19.5348 59.3907 19.2687 58.9045 18.9795C58.1453 18.528 57.3387 18.1431 56.6202 17.6377C55.6993 16.9898 55.0322 16.1259 54.9058 14.9779C54.7165 13.2588 55.3698 11.863 56.7212 10.7784C57.897 9.83472 59.293 9.41592 60.7804 9.24003C60.863 9.23025 60.9435 9.20266 61.0249 9.18335C61.6842 9.18335 62.3436 9.18335 63.0029 9.18335Z" fill="white"/>
<path d="M47.6832 9.48052C47.4618 10.0005 47.2524 10.4963 47.04 10.9909C45.0124 15.7136 42.9824 20.4352 40.9631 25.1613C40.867 25.3865 40.7493 25.4456 40.5155 25.4437C39.2357 25.4334 37.9559 25.4292 36.6764 25.4464C36.4051 25.4501 36.3167 25.3573 36.2542 25.1196C35.1694 20.9916 34.0663 16.8681 32.9938 12.7371C32.797 11.9792 32.4031 11.4616 31.6643 11.1439C30.4801 10.6347 29.2507 10.277 27.9968 9.98629C27.9413 9.97342 27.886 9.95935 27.834 9.94664C27.8402 9.46753 27.8402 9.46752 28.3069 9.46751C30.5464 9.46751 32.786 9.46702 35.0255 9.46772C36.0877 9.46806 36.8544 10.0706 37.0552 11.0972C37.6238 14.0034 38.1803 16.9119 38.7419 19.8195C38.7664 19.9466 38.7944 20.0731 38.8315 20.2522C38.8897 20.1456 38.9302 20.0857 38.9566 20.0203C40.3475 16.5851 41.7389 13.1501 43.1228 9.71216C43.1984 9.52449 43.2915 9.46083 43.4991 9.46243C44.7981 9.47249 46.0973 9.4673 47.3964 9.468C47.4804 9.46805 47.5642 9.47513 47.6832 9.48052Z" fill="white"/>
<path d="M45.9883 25.4388C47.1582 20.1 48.32 14.7988 49.4846 9.48462C50.9012 9.48462 52.3012 9.48462 53.7279 9.48462C53.5513 10.294 53.3786 11.0879 53.2047 11.8816C52.2434 16.2712 51.2785 20.6599 50.3277 25.0515C50.2617 25.3566 50.1509 25.4536 49.8265 25.4474C48.6636 25.4255 47.5002 25.4388 46.3368 25.4388C46.2324 25.4388 46.1281 25.4388 45.9883 25.4388Z" fill="white"/>
</svg>
